<?xml version="1.0" encoding="UTF-8"?><svg id="Layer_1" xmlns="http://www.w3.org/2000/svg" viewBox="0 0 1073.54 268.09"><defs><style>.cls-1{fill:#153549;}.cls-1,.cls-2{stroke-width:0px;}.cls-2{fill:#00794a;}</style></defs><path class="cls-2" d="M364.13,211.02c11.6,0,20.12,9.46,20.12,23.27s-8.51,23.27-20.12,23.27-20.05-9.46-20.05-23.27,8.45-23.27,20.05-23.27ZM364.13,214.93c-9.21,0-15.7,7.88-15.7,19.36s6.5,19.36,15.7,19.36,15.7-7.88,15.7-19.36-6.43-19.36-15.7-19.36Z"/><path class="cls-2" d="M391.57,239.02v-27.37h4.35v27.24c0,10.09,5.61,14.63,13.05,14.63s13.05-4.54,13.05-14.63v-27.24h4.35v27.37c0,12.49-7.57,18.48-17.41,18.48s-17.41-5.99-17.41-18.48Z"/><path class="cls-2" d="M452.55,215.5v41.43h-4.35v-41.43h-16.02v-3.85h36.39v3.85h-16.02Z"/><path class="cls-2" d="M489.14,211.65l17.66,45.28h-4.54l-5.11-13.18h-20.87l-5.11,13.18h-4.41l17.59-45.28h4.79ZM477.72,239.91h17.91l-8.96-23.21-8.96,23.21Z"/><path class="cls-2" d="M529,211.02c11.6,0,20.12,9.46,20.12,23.27s-8.51,23.27-20.12,23.27-20.05-9.46-20.05-23.27,8.45-23.27,20.05-23.27ZM529,214.93c-9.21,0-15.7,7.88-15.7,19.36s6.5,19.36,15.7,19.36,15.7-7.88,15.7-19.36-6.43-19.36-15.7-19.36Z"/><path class="cls-2" d="M556.43,239.02v-27.37h4.35v27.24c0,10.09,5.61,14.63,13.05,14.63s13.05-4.54,13.05-14.63v-27.24h4.35v27.37c0,12.49-7.57,18.48-17.41,18.48s-17.41-5.99-17.41-18.48Z"/><path class="cls-2" d="M617.86,211.65l17.66,45.28h-4.54l-5.11-13.18h-20.87l-5.11,13.18h-4.41l17.59-45.28h4.79ZM606.45,239.91h17.91l-8.96-23.21-8.96,23.21Z"/><path class="cls-2" d="M646.82,256.93h-4.41v-45.28h4.41v45.28Z"/><path class="cls-2" d="M656.66,244.45c2.58,5.86,8.01,9.27,14.5,9.27s11.48-3.41,11.48-9.14c0-6.24-5.55-7.38-12.61-9.08-7.25-1.77-14.25-3.59-14.25-11.92,0-7.57,6.68-12.55,14.82-12.55s13.31,3.78,15.77,9.27l-3.47,2.46c-2.21-4.73-5.99-7.88-12.36-7.88-5.93,0-10.47,3.47-10.47,8.39,0,5.49,4.86,6.62,11.48,8.26,7.57,1.83,15.45,3.41,15.45,12.74,0,8.13-7.32,13.31-15.96,13.31-7.88,0-15.14-4.04-17.91-10.41l3.53-2.71Z"/><path class="cls-1" d="M380.4,74.27c7.36,0,12.59-4.9,14.04-12.82l20.51,6.8c-4.9,15.05-16.49,24.97-34.44,24.97-22.51,0-38.45-17.27-38.45-41.35s15.94-41.35,38.45-41.35c17.94,0,29.53,9.92,34.44,24.97l-20.51,6.8c-1.45-7.91-6.69-12.82-14.04-12.82-9.7,0-16.49,8.69-16.49,22.4s6.8,22.4,16.49,22.4Z"/><path class="cls-1" d="M423.3,11.86h21.84v61.52h34.44v18.5h-56.28V11.86Z"/><path class="cls-1" d="M485.6,59.23V11.86h21.73v46.7c0,10.81,5.02,15.6,12.93,15.6s12.93-4.79,12.93-15.6V11.86h21.84v47.37c0,22.07-13.49,33.88-34.77,33.88s-34.66-11.81-34.66-33.88Z"/><path class="cls-1" d="M567.29,11.86h36.44c17.72,0,27.31,7.69,27.31,21.84,0,8.81-5.57,14.38-10.48,16.72,7.13,2.9,12.71,9.36,12.71,18.84,0,14.15-9.81,22.62-27.64,22.62h-38.34V11.86ZM601.4,43.18c5.8,0,9.03-2.34,9.03-6.8s-3.23-6.8-9.03-6.8h-13.15v13.6h13.15ZM588.25,74.05h15.27c5.57,0,8.69-2.9,8.69-7.25s-3.12-7.24-8.69-7.24h-15.27v14.49Z"/><path class="cls-1" d="M715.3,11.86l28.87,80.02h-22.18l-5.13-14.49h-28.98l-5.02,14.49h-21.62l28.87-80.02h25.19ZM694.01,59.9h16.72l-8.36-23.85-8.36,23.85Z"/><path class="cls-1" d="M752.19,11.86h21.84v61.52h34.44v18.5h-56.28V11.86Z"/><path class="cls-1" d="M839.79,91.88h-21.84V11.86h35c19.73,0,31.88,9.36,31.88,27.31s-12.15,27.19-31.88,27.19h-13.15v25.52ZM851.82,48.19c7.69,0,11.37-3.46,11.37-9.03s-3.68-9.03-11.37-9.03h-12.04v18.06h12.04Z"/><path class="cls-1" d="M915.24,91.88h-21.84V11.86h21.84v80.02Z"/><path class="cls-1" d="M1000.05,91.88h-18.95l-31.88-46.36v46.36h-20.84V11.86h21.4l29.31,43.58V11.86h20.95v80.02Z"/><path class="cls-1" d="M345.4,109.57h29.65c25.86,0,41.35,15.6,41.35,40.01s-15.49,40.01-41.35,40.01h-29.65v-80.02ZM375.05,171.2c12.93,0,19.73-8.58,19.73-21.62s-6.8-21.62-19.73-21.62h-8.36v43.24h8.36Z"/><path class="cls-1" d="M425.31,156.94v-47.37h21.73v46.7c0,10.81,5.02,15.6,12.93,15.6s12.93-4.79,12.93-15.6v-46.7h21.84v47.37c0,22.07-13.49,33.88-34.77,33.88s-34.66-11.81-34.66-33.88Z"/><path class="cls-1" d="M565.73,171.98c7.36,0,12.59-4.9,14.04-12.82l20.51,6.8c-4.9,15.05-16.49,24.97-34.44,24.97-22.51,0-38.45-17.27-38.45-41.35s15.94-41.35,38.45-41.35c17.94,0,29.53,9.92,34.44,24.97l-20.51,6.8c-1.45-7.91-6.69-12.82-14.04-12.82-9.7,0-16.49,8.69-16.49,22.4s6.8,22.4,16.49,22.4Z"/><path class="cls-1" d="M654,109.57l28.87,80.02h-22.18l-5.13-14.49h-28.98l-5.02,14.49h-21.62l28.87-80.02h25.19ZM632.71,157.61h16.72l-8.36-23.85-8.36,23.85Z"/><path class="cls-1" d="M762.55,189.59h-18.95l-31.88-46.36v46.36h-20.84v-80.02h21.4l29.31,43.58v-43.58h20.95v80.02Z"/><path class="cls-1" d="M824.63,109.57l28.87,80.02h-22.18l-5.13-14.49h-28.98l-5.02,14.49h-21.62l28.87-80.02h25.19ZM803.34,157.61h16.72l-8.36-23.85-8.36,23.85Z"/><path class="cls-1" d="M861.52,109.57h29.65c25.86,0,41.35,15.6,41.35,40.01s-15.49,40.01-41.35,40.01h-29.65v-80.02ZM891.17,171.2c12.93,0,19.73-8.58,19.73-21.62s-6.8-21.62-19.73-21.62h-8.36v43.24h8.36Z"/><path class="cls-1" d="M985.68,109.57l28.87,80.02h-22.18l-5.13-14.49h-28.98l-5.02,14.49h-21.62l28.87-80.02h25.19ZM964.39,157.61h16.72l-8.36-23.85-8.36,23.85Z"/><path class="cls-2" d="M297.17,160.84c-2.31-11.82-6.93-22.91-13.71-32.97l-59.5-88.21c-6.79-10.06-15.34-18.5-25.44-25.07-9.74-6.35-20.49-10.69-31.96-12.92-11.46-2.23-23.06-2.22-34.47,0-11.82,2.31-22.91,6.93-32.97,13.71-10.06,6.79-18.49,15.34-25.07,25.44-.22.34-.44.69-.66,1.03L15.39,127.86c-6.79,10.06-11.4,21.16-13.71,32.97-2.23,11.41-2.24,23.01,0,34.47,2.23,11.46,6.57,22.21,12.92,31.96,6.57,10.09,15.01,18.65,25.07,25.44,10.06,6.79,21.16,11.4,32.97,13.71,11.41,2.23,23.01,2.24,34.47,0,11.46-2.23,22.21-6.57,31.96-12.92,3.66-2.39,7.12-5.02,10.37-7.88,3.25,2.87,6.71,5.5,10.37,7.88,9.74,6.35,20.5,10.69,31.96,12.92,11.46,2.23,23.06,2.23,34.47,0,11.82-2.31,22.91-6.93,32.97-13.71,10.06-6.79,18.49-15.34,25.07-25.44,6.35-9.74,10.69-20.5,12.92-31.96,2.23-11.46,2.23-23.06,0-34.47ZM63.96,118.01c.51,1.55,1.06,3.08,1.65,4.6l-18.14,26.89c-3.87,5.73-6.49,12.05-7.81,18.79-1.27,6.5-1.27,13.11,0,19.63,1.27,6.53,3.75,12.65,7.36,18.2,3.74,5.75,8.55,10.63,14.28,14.49,5.73,3.87,12.05,6.49,18.79,7.81,6.5,1.27,13.11,1.27,19.63,0,6.53-1.27,12.65-3.75,18.2-7.36,5.75-3.75,10.63-8.55,14.49-14.28l57.85-85.76,2.38,3.53-56.96,84.44c-8.24,12.22-20.75,20.49-35.21,23.31-14.47,2.81-29.16-.18-41.38-8.42-12.22-8.24-20.49-20.75-23.31-35.21-2.81-14.47.18-29.16,8.42-41.38l19.76-29.29ZM163.1,99.15l-13.67,20.27-13.67-20.27c-5.08-7.53-3.09-17.79,4.45-22.87,7.53-5.08,17.79-3.09,22.87,4.45l.43.63c3.24,5.33,3.31,12.29-.4,17.79ZM155.5,58.65c-8.36-1.62-16.85.1-23.91,4.86-7.06,4.76-11.84,11.99-13.47,20.35-1.62,8.36.1,16.85,4.86,23.91l17.15,25.43-2.38,3.53-18.04-26.75c-5.35-7.93-7.29-17.48-5.47-26.87,1.83-9.39,7.2-17.51,15.13-22.86,7.93-5.35,17.48-7.29,26.87-5.47,9.39,1.83,17.51,7.2,22.86,15.13l59.5,88.21c5.35,7.93,7.29,17.48,5.47,26.87-1.83,9.39-7.2,17.51-15.13,22.86-7.93,5.35-17.48,7.29-26.87,5.47-7.75-1.51-14.64-5.44-19.82-11.22l2.28-3.39c4.67,5.56,11.05,9.33,18.29,10.74,8.36,1.62,16.85-.1,23.91-4.86,7.06-4.76,11.84-11.99,13.47-20.35,1.62-8.36-.1-16.85-4.86-23.91l-59.5-88.21c-4.76-7.06-11.99-11.84-20.35-13.47ZM222.57,168.93c5.08,7.53,3.09,17.79-4.45,22.87-7.53,5.08-17.79,3.09-22.87-4.45l-1.53-2.27,19.87-29.47,8.97,13.3ZM173.46,215.14c2.29,2.2,4.79,4.19,7.47,5.94,5.55,3.61,11.68,6.09,18.2,7.36,6.53,1.27,13.13,1.27,19.63,0,6.73-1.32,13.06-3.95,18.79-7.81,5.73-3.87,10.54-8.74,14.28-14.49,3.61-5.55,6.09-11.68,7.36-18.2,1.27-6.53,1.27-13.13,0-19.63-1.32-6.73-3.95-13.06-7.81-18.79l-59.5-88.21c-3.87-5.73-8.74-10.54-14.49-14.28-5.55-3.61-11.68-6.09-18.2-7.36-6.53-1.27-13.13-1.27-19.63,0-6.73,1.32-13.06,3.95-18.79,7.81-5.73,3.87-10.54,8.74-14.28,14.49-3.61,5.55-6.09,11.68-7.36,18.2s-1.27,13.13,0,19.63c1.32,6.73,3.95,13.06,7.81,18.79l21.52,31.91-2.38,3.53-22.41-33.23c-8.24-12.22-11.23-26.91-8.42-41.38,2.81-14.47,11.09-26.97,23.31-35.21,12.22-8.24,26.91-11.23,41.38-8.42,14.47,2.81,26.97,11.09,35.21,23.31l59.5,88.21c8.24,12.22,11.23,26.91,8.42,41.38-2.81,14.47-11.09,26.97-23.31,35.21-12.22,8.24-26.91,11.23-41.38,8.42-10.34-2.01-19.67-6.81-27.16-13.85l2.24-3.32ZM85.25,155.63l19.87,29.47-1.53,2.27c-5.08,7.53-15.34,9.53-22.87,4.45-7.53-5.08-9.53-15.34-4.45-22.87l8.97-13.3ZM63.51,160.32c-4.76,7.06-6.49,15.55-4.86,23.91,1.62,8.36,6.41,15.58,13.47,20.35,7.06,4.76,15.55,6.49,23.91,4.86,8.36-1.62,15.59-6.41,20.35-13.47l59.5-88.21c.94-1.4,1.77-2.86,2.47-4.36v-.02s-.05-.11-.05-.11l2.58,3.83c-.53.97-1.11,1.93-1.74,2.86l-59.5,88.21c-5.35,7.93-13.47,13.31-22.86,15.13-9.39,1.83-18.94-.12-26.87-5.47-7.93-5.35-13.31-13.47-15.13-22.86-1.83-9.39.12-18.94,5.47-26.87l13.36-19.81c.41.64.83,1.29,1.26,1.92l1.1,1.63-12.45,18.46ZM130.65,240.59c-8.07,5.26-16.99,8.86-26.49,10.71-9.5,1.85-19.12,1.85-28.57,0-9.78-1.91-18.98-5.74-27.32-11.37-8.34-5.63-15.33-12.72-20.77-21.07-5.26-8.07-8.86-16.99-10.71-26.49-1.85-9.5-1.85-19.12,0-28.57,1.91-9.78,5.74-18.98,11.37-27.32l31.31-46.42c0,2.23.09,4.45.25,6.68l-28.3,41.95c-5.33,7.9-8.95,16.6-10.76,25.88-1.75,8.96-1.76,18.06,0,27.05,1.75,8.99,5.16,17.43,10.14,25.08,5.16,7.92,11.78,14.64,19.67,19.96,7.9,5.33,16.6,8.95,25.88,10.76,8.96,1.75,18.06,1.76,27.05,0,8.99-1.75,17.43-5.16,25.08-10.14,7.92-5.16,14.64-11.78,19.96-19.67l53.48-79.28,2.38,3.53-52.59,77.96c-5.63,8.34-12.72,15.33-21.07,20.77ZM282.06,192.37c-1.85,9.5-5.45,18.42-10.71,26.49-5.44,8.35-12.43,15.44-20.77,21.07-8.34,5.63-17.53,9.45-27.32,11.37-9.45,1.85-19.07,1.85-28.57,0-9.5-1.85-18.42-5.45-26.49-10.71-2.87-1.87-5.58-3.92-8.14-6.14.82-1.03,1.62-2.07,2.4-3.14,2.48,2.17,5.11,4.16,7.9,5.97,7.65,4.98,16.09,8.39,25.08,10.14,8.99,1.75,18.1,1.75,27.05,0,9.28-1.82,17.98-5.44,25.88-10.76,7.9-5.33,14.52-12.04,19.67-19.96,4.98-7.65,8.39-16.09,10.14-25.08,1.75-8.99,1.75-18.1,0-27.05-1.82-9.28-5.44-17.98-10.76-25.88l-59.5-88.21c-5.33-7.9-12.04-14.52-19.96-19.67-7.65-4.98-16.09-8.39-25.08-10.14-8.99-1.75-18.1-1.75-27.05,0-9.28,1.82-17.98,5.44-25.88,10.76-7.9,5.33-14.52,12.04-19.67,19.96-4.98,7.65-8.39,16.09-10.14,25.08-1.75,8.99-1.75,18.1,0,27.05,1.82,9.28,5.44,17.98,10.76,25.88l25.89,38.39-2.38,3.53-26.78-39.71c-5.63-8.34-9.45-17.53-11.37-27.32-1.85-9.45-1.85-19.07,0-28.57,1.85-9.5,5.45-18.42,10.71-26.49,5.44-8.35,12.43-15.44,20.77-21.07,8.34-5.63,17.53-9.45,27.32-11.37,9.45-1.85,19.07-1.85,28.57,0,9.5,1.85,18.42,5.45,26.49,10.71,8.35,5.44,15.44,12.43,21.07,20.77l59.5,88.21c5.63,8.34,9.45,17.53,11.37,27.32,1.85,9.45,1.85,19.07,0,28.57Z"/></svg>